<?xml version="1.0" standalone="no"?>
<!DOCTYPE svg PUBLIC "-//W3C//DTD SVG 20010904//EN"
 "http://www.w3.org/TR/2001/REC-SVG-20010904/DTD/svg10.dtd">
<svg version="1.0" xmlns="http://www.w3.org/2000/svg"
 width="400.000000pt" height="400.000000pt" viewBox="0 0 400.000000 400.000000"
 preserveAspectRatio="xMidYMid meet">
<metadata>
Created by potrace 1.14, written by Peter Selinger 2001-2017
</metadata>
<g transform="translate(0.000000,400.000000) scale(0.100000,-0.100000)"
fill="#000000" stroke="none">
<path d="M245 3982 c87 -73 648 -550 760 -645 77 -66 141 -123 143 -127 3 -8
-156 -223 -168 -228 -4 -1 -33 15 -66 36 -51 34 -186 120 -369 237 -27 17
-104 66 -170 108 -66 42 -176 112 -245 156 l-125 80 -3 -297 c-1 -162 1 -299
5 -302 5 -4 60 -17 123 -29 361 -68 836 -165 844 -171 4 -5 -10 -34 -32 -67
-21 -32 -52 -82 -67 -112 l-27 -54 -86 6 c-79 6 -332 29 -636 57 -65 6 -120 9
-122 7 -2 -2 -3 -114 -2 -249 l3 -245 135 38 c414 115 693 189 698 185 2 -2
-10 -31 -27 -64 -16 -33 -46 -107 -66 -165 l-37 -105 -81 -30 c-45 -17 -203
-78 -352 -136 l-270 -105 -3 -185 c-1 -101 -1 -272 0 -378 l3 -193 150 140
c491 458 643 594 653 582 22 -27 153 -277 150 -286 -1 -5 -30 -40 -64 -77 -34
-38 -97 -110 -140 -160 -43 -51 -135 -156 -204 -234 -69 -79 -143 -164 -165
-190 -22 -26 -118 -135 -213 -243 l-172 -196 0 -170 0 -171 425 0 424 0 157
476 157 477 18 -49 c11 -27 29 -78 41 -114 17 -51 23 -60 29 -45 87 234 124
313 206 437 l44 66 -17 41 c-16 41 -16 41 14 78 46 57 162 169 162 156 0 -6
-11 -64 -25 -129 -14 -66 -30 -139 -35 -164 -17 -86 -89 -426 -115 -545 -14
-66 -44 -203 -65 -305 -21 -102 -48 -227 -60 -279 -11 -52 -20 -96 -20 -98 0
-2 171 -3 380 -3 l380 0 0 22 c0 18 -182 1132 -210 1288 -34 184 -80 491 -76
499 8 13 152 81 186 87 20 5 31 2 34 -7 3 -8 41 -142 87 -299 45 -157 99 -343
120 -415 119 -406 329 -1147 329 -1160 0 -13 51 -15 416 -15 l416 0 -31 38
c-17 22 -37 45 -45 52 -11 8 -13 17 -7 29 15 27 39 132 44 196 7 69 -5 56 -22
-24 -16 -73 -68 -170 -106 -192 -31 -19 -114 -24 -165 -10 l-24 7 2 134 c1 74
5 204 8 288 6 136 9 152 23 146 97 -42 155 -43 220 -3 42 26 35 34 -12 14 -83
-35 -195 -5 -222 58 -32 77 -25 340 11 394 14 22 13 23 -10 23 -25 0 -25 1
-10 35 7 19 14 45 13 57 0 15 -6 7 -14 -22 -27 -83 -84 -129 -85 -67 -1 12 -7
33 -15 47 -14 25 -14 25 -9 -10 3 -19 7 -45 10 -56 13 -65 -78 -295 -130 -329
-36 -24 -72 -22 -101 5 -34 32 -38 66 -21 161 9 46 20 144 26 218 7 91 15 142
25 158 22 33 69 60 145 83 47 14 81 34 123 69 31 27 66 53 78 56 51 16 98 -49
219 -298 50 -106 109 -211 139 -251 l52 -68 -16 -75 c-8 -41 -14 -94 -14 -117
l1 -41 8 46 c10 57 50 169 61 169 8 0 147 -85 216 -132 38 -25 43 -34 43 -66
0 -33 8 -45 73 -108 39 -38 82 -78 95 -88 l22 -19 0 514 0 514 -318 118 c-174
65 -364 137 -422 159 -58 22 -126 47 -152 56 l-48 16 0 168 0 168 23 -5 c12
-3 67 -16 122 -29 55 -13 147 -35 205 -50 210 -52 566 -136 578 -136 9 0 12
44 12 175 l0 175 -273 0 c-151 0 -363 3 -472 7 l-197 6 4 148 c2 82 7 151 10
155 4 3 156 16 340 30 183 13 385 28 448 34 63 5 121 10 128 10 9 0 12 100 12
465 l0 464 -63 -37 c-60 -35 -359 -218 -497 -304 -164 -102 -358 -218 -364
-218 -3 0 -6 76 -6 169 0 161 -1 170 -20 176 -11 3 -20 9 -20 13 1 4 56 48
123 98 219 165 552 416 562 425 5 5 -173 9 -420 9 l-430 -1 -99 -167 c-55 -92
-110 -184 -123 -205 l-23 -37 -40 20 c-35 18 -165 58 -242 74 -16 4 -28 11
-28 17 0 6 27 71 60 146 33 74 60 139 60 144 0 5 -95 9 -219 9 l-218 0 -7 -61
c-3 -34 -6 -96 -6 -138 0 -111 -3 -118 -58 -126 -41 -6 -208 -58 -253 -79 -20
-9 -22 3 -40 247 l-12 157 -209 0 c-114 0 -208 -4 -208 -8 0 -4 4 -12 9 -18
12 -13 251 -480 251 -490 0 -5 -19 -22 -43 -39 -23 -16 -72 -56 -108 -87 l-67
-57 -45 67 c-25 37 -92 135 -149 217 -57 83 -143 210 -193 283 l-90 132 -270
0 c-256 -1 -269 -2 -250 -18z m2178 -345 c112 -30 290 -117 354 -175 l42 -37
-14 -270 c-13 -268 -24 -496 -46 -1025 -7 -151 -13 -276 -15 -278 -1 -2 -26
10 -55 27 -236 132 -543 131 -810 -5 -127 -64 -288 -197 -379 -313 -30 -38
-58 -70 -61 -70 -3 -1 -16 38 -29 87 -87 337 -303 974 -434 1285 l-16 37 42
63 c264 391 581 622 950 693 117 22 349 12 471 -19z m-1441 -1004 c127 -281
274 -723 368 -1107 21 -87 41 -160 44 -163 3 -3 28 14 55 38 50 44 111 85 111
75 0 -3 -25 -33 -55 -67 -30 -34 -76 -95 -102 -135 -26 -41 -49 -74 -53 -74
-3 0 -14 27 -24 61 -77 256 -303 792 -459 1088 l-49 94 27 66 c26 63 95 191
103 191 2 0 17 -30 34 -67z m-54 -540 c137 -283 220 -490 341 -855 l52 -157
56 57 55 57 -25 -46 c-55 -97 -102 -197 -133 -279 l-32 -84 -40 124 c-98 306
-254 639 -428 912 l-61 98 18 87 c10 49 24 106 32 128 25 71 59 145 66 145 4
0 48 -84 99 -187z m1502 -150 c24 -4 73 -44 176 -140 l144 -134 -1 -77 c-1
-42 -4 -64 -6 -48 -4 27 -6 28 -45 22 -21 -4 -68 -19 -102 -35 -70 -32 -90
-60 -102 -148 l-6 -52 -83 117 c-45 64 -106 152 -136 194 -30 42 -83 119 -119
170 -36 51 -65 97 -65 103 0 26 253 47 345 28z m298 -445 c-2 -13 -9 -22 -17
-20 -10 2 -11 -2 -5 -15 17 -37 -1 -363 -20 -363 -21 0 -107 82 -127 121 -79
155 -17 297 129 299 39 0 43 -2 40 -22z m-101 -407 l63 -46 -8 -40 c-4 -22 -7
-70 -7 -107 l0 -66 -50 5 c-118 12 -158 61 -153 186 3 72 6 81 31 103 33 28
42 25 124 -35z m-7 -290 c36 -9 81 -27 100 -39 42 -26 41 -26 88 -6 31 13 47
13 102 3 86 -15 100 -29 100 -95 0 -103 -35 -135 -128 -116 -38 8 -106 10
-204 5 l-147 -6 -35 35 c-25 25 -36 47 -41 79 -7 46 8 122 27 147 14 16 60 14
138 -7z m259 -282 c36 -7 69 -17 73 -23 12 -17 9 -85 -4 -109 -17 -33 -38 -45
-98 -58 -30 -6 -73 -22 -96 -35 -22 -13 -51 -24 -64 -24 -19 0 -21 -2 -10 -15
7 -9 10 -18 6 -22 -18 -18 -115 58 -140 111 -24 50 -21 131 5 157 17 17 29 20
62 16 23 -3 65 -2 92 2 75 12 102 12 174 0z"/>
<path d="M1390 2782 c0 -327 3 -441 12 -450 9 -9 68 -12 205 -12 l193 0 0 149
c0 82 -3 156 -6 165 -5 12 -21 16 -65 16 l-59 0 0 -70 0 -70 -70 0 -70 0 0
265 0 265 70 0 70 0 0 -54 c0 -82 3 -86 71 -86 l60 0 -3 158 -3 157 -202 3
-203 2 0 -438z"/>
<path d="M1832 3133 l3 -88 63 -3 62 -3 0 -345 c0 -286 2 -348 14 -360 9 -9
35 -14 70 -14 l56 0 0 360 0 360 70 0 71 0 -3 88 -3 87 -203 3 -203 2 3 -87z"/>
<path d="M2270 2782 c0 -327 3 -441 12 -450 7 -7 38 -12 70 -12 l58 0 0 180 0
180 85 0 85 0 0 74 c0 108 1 106 -91 106 l-79 0 0 90 0 90 125 0 125 0 0 74
c0 41 -3 81 -6 90 -5 14 -32 16 -195 16 l-189 0 0 -438z"/>
</g>
</svg>
